HIERARCHY
ROOT Hips
{
	OFFSET 0.000000 0.000000 0.000000
	CHANNELS 6 Xposition Yposition Zposition Zrotation Yrotation Xrotation 
	JOINT LHipJoint
	{
		OFFSET 0.000000 0.000000 0.000000
		CHANNELS 3 Zrotation Yrotation Xrotation
		JOINT LeftUpLeg
		{
			OFFSET 1.363060 -1.794630 0.839290
			CHANNELS 3 Zrotation Yrotation Xrotation
			JOINT LeftLeg
			{
				OFFSET 2.448110 -6.726130 0.000000
				CHANNELS 3 Zrotation Yrotation Xrotation
				JOINT LeftFoot
				{
					OFFSET 2.562200 -7.039590 0.000000
					CHANNELS 3 Zrotation Yrotation Xrotation
					JOINT LeftToeBase
					{
						OFFSET 0.157640 -0.433110 2.322550
						CHANNELS 3 Zrotation Yrotation Xrotation
						End Site
						{
							OFFSET 0.000000 0.000000 0.000000
						}
					}
				}
			}
		}
	}
	JOINT RHipJoint
	{
		OFFSET 0.000000 0.000000 0.000000
		CHANNELS 3 Zrotation Yrotation Xrotation
		JOINT RightUpLeg
		{
			OFFSET -1.305520 -1.794630 0.839290
			CHANNELS 3 Zrotation Yrotation Xrotation
			JOINT RightLeg
			{
				OFFSET -2.542530 -6.985550 0.000000
				CHANNELS 3 Zrotation Yrotation Xrotation
				JOINT RightFoot
				{
					OFFSET -2.568260 -7.056230 0.000000
					CHANNELS 3 Zrotation Yrotation Xrotation
					JOINT RightToeBase
					{
						OFFSET -0.164730 -0.452590 2.363150
						CHANNELS 3 Zrotation Yrotation Xrotation
						End Site
						{
							OFFSET 0.000000 0.000000 0.000000
						}
					}
				}
			}
		}
	}
	JOINT LowerBack
	{
		OFFSET 0.000000 0.000000 0.000000
		CHANNELS 3 Zrotation Yrotation Xrotation
		JOINT Spine
		{
			OFFSET 0.028270 2.035590 -0.193380
			CHANNELS 3 Zrotation Yrotation Xrotation
			JOINT Spine1
			{
				OFFSET 0.056720 2.048850 -0.042750
				CHANNELS 3 Zrotation Yrotation Xrotation
				JOINT Neck
				{
					OFFSET 0.000000 0.000000 0.000000
					CHANNELS 3 Zrotation Yrotation Xrotation
					JOINT Neck1
					{
						OFFSET -0.054170 1.746240 0.172020
						CHANNELS 3 Zrotation Yrotation Xrotation
						JOINT Head
						{
							OFFSET 0.104070 1.761360 -0.123970
							CHANNELS 3 Zrotation Yrotation Xrotation
							End Site
							{
								OFFSET 0.000000 0.000000 0.000000
							}
						}
					}
				}
				JOINT LeftShoulder
				{
					OFFSET 0.000000 0.000000 0.000000
					CHANNELS 3 Zrotation Yrotation Xrotation
					JOINT LeftArm
					{
						OFFSET 3.362410 1.200890 -0.311210
						CHANNELS 3 Zrotation Yrotation Xrotation
						JOINT LeftForeArm
						{
							OFFSET 4.983000 -0.000000 -0.000000
							CHANNELS 3 Zrotation Yrotation Xrotation
							JOINT LeftHand
							{
								OFFSET 3.483560 -0.000000 -0.000000
								CHANNELS 3 Zrotation Yrotation Xrotation
								JOINT LeftFingerBase
								{
									OFFSET 0.000000 0.000000 0.000000
									CHANNELS 3 Zrotation Yrotation Xrotation
									JOINT LeftHandIndex1
									{
										OFFSET 0.715260 -0.000000 -0.000000
										CHANNELS 3 Zrotation Yrotation Xrotation
										End Site
										{
											OFFSET 0.000000 0.000000 0.000000
										}
									}
								}
								JOINT LThumb
								{
									OFFSET 0.000000 0.000000 0.000000
									CHANNELS 3 Zrotation Yrotation Xrotation
									End Site
									{
										OFFSET 0.000000 0.000000 0.000000
									}
								}
							}
						}
					}
				}
				JOINT RightShoulder
				{
					OFFSET 0.000000 0.000000 0.000000
					CHANNELS 3 Zrotation Yrotation Xrotation
					JOINT RightArm
					{
						OFFSET -3.136600 1.374050 -0.404650
						CHANNELS 3 Zrotation Yrotation Xrotation
						JOINT RightForeArm
						{
							OFFSET -5.241900 -0.000000 -0.000000
							CHANNELS 3 Zrotation Yrotation Xrotation
							JOINT RightHand
							{
								OFFSET -3.444170 -0.000000 -0.000000
								CHANNELS 3 Zrotation Yrotation Xrotation
								JOINT RightFingerBase
								{
									OFFSET 0.000000 0.000000 0.000000
									CHANNELS 3 Zrotation Yrotation Xrotation
									JOINT RightHandIndex1
									{
										OFFSET -0.622530 -0.000000 -0.000000
										CHANNELS 3 Zrotation Yrotation Xrotation
										End Site
										{
											OFFSET 0.000000 0.000000 0.000000
										}
									}
								}
								JOINT RThumb
								{
									OFFSET 0.000000 0.000000 0.000000
									CHANNELS 3 Zrotation Yrotation Xrotation
									End Site
									{
										OFFSET 0.000000 0.000000 0.000000
									}
								}
							}
						}
					}
				}
			}
		}
	}
}
MOTION
Frames: 12
Frame Time: 0.008333
4.946377 16.261522 -2.345721 -147.670940 75.993029 -129.090953 -11.750969 1.509322 2.346403 -19.709804 -3.396134 -23.355864 -2.060418 0.339555 31.889566 3.227250 10.562986 -28.876463 175.379101 0.000000 -1.762300 9.250328 -2.102192 0.942918 0.390567 3.943421 -27.053727 -1.815569 -3.576190 70.171193 -2.833240 -16.061156 -2.137027 -1.720099 0.000000 -46.398000 4.388542 -0.369129 -3.575992 1.356858 -0.665425 -3.748112 -0.039203 -0.705314 -1.411656 -2.096235 -6.805103 -6.413141 1.487898 0.088792 0.355039 0.000000 0.000000 0.000000 8.609827 1.613872 -0.573919 -7.681791 -39.327931 -62.001302 3.051788 -40.457299 -0.334164 27.761779 -2.074731 -0.713345 -0.527201 0.756066 0.000000 0.000000 0.000000 0.000000 0.000000 0.000000 0.000000 -17.069894 -2.734446 3.309503 -78.723153 72.866219 -111.081847 -0.564725 14.941573 0.020252 2.329791 9.927909 0.215931 -0.016644 -0.586358 -0.000000 0.000000 0.000000 0.000000 0.000000 0.000000 0.000000 
5.151665 16.345706 -2.479857 -148.122477 75.574374 -129.344664 -12.000689 1.549009 2.173245 -19.274604 -3.216566 -21.599456 -1.999912 0.254664 30.027570 2.961159 10.114515 -26.779438 175.992500 0.000000 -0.306799 8.990687 -1.880880 0.883696 0.820552 4.542286 -28.194717 -1.686876 -3.489761 68.793330 -2.773431 -15.567080 -2.493006 -1.605700 0.000000 -46.908900 5.178255 -0.637177 -3.176229 1.489479 -0.981907 -3.845508 -0.185710 -0.981764 -2.158441 -2.119463 -6.849115 -6.671241 1.539729 0.097973 0.282054 0.000000 0.000000 0.000000 8.661542 1.657898 -0.162707 -8.392059 -38.715222 -59.600332 2.815091 -38.458160 -0.319896 27.403054 -0.888736 -0.398510 -0.553939 0.710508 0.000000 0.000000 0.000000 0.000000 0.000000 0.000000 0.000000 -17.212168 -3.712302 2.458078 -94.239025 74.525166 -135.020483 -2.508781 11.934844 0.008672 1.913601 10.701625 0.197309 -0.069402 -0.681719 -0.000000 0.000000 0.000000 0.000000 0.000000 0.000000 0.000000 
5.359181 16.436304 -2.614556 -148.959915 74.986659 -129.932531 -12.213000 1.602425 1.980251 -18.821286 -3.017800 -19.905294 -1.926216 0.185918 28.231437 2.664932 9.535063 -24.397283 -3.332700 0.000000 -1.692899 8.761047 -1.680726 0.794289 1.307571 4.967398 -29.264772 -1.525180 -3.408196 67.061141 -2.713732 -15.063335 -2.780186 -1.516700 0.000000 -47.336100 5.949532 -0.722697 -2.724098 1.553433 -1.112684 -4.119352 -0.527210 -1.053415 -3.602902 -1.950511 -6.877332 -6.404402 1.609613 0.097327 0.367093 0.000000 0.000000 0.000000 8.842744 0.969860 0.612515 -8.925598 -38.424077 -56.954302 2.423176 -36.075796 -0.295850 26.050836 0.163690 -0.119930 -0.569492 0.666056 0.000000 0.000000 0.000000 0.000000 0.000000 0.000000 0.000000 -17.719007 -4.000209 -0.084321 -109.280238 78.175244 -157.894790 -4.883483 10.420948 -0.010366 1.534188 11.380446 0.177489 -0.144404 -0.738706 0.000000 0.000000 0.000000 0.000000 0.000000 0.000000 0.000000 
5.569195 16.532079 -2.749700 -150.046707 74.184564 -130.892318 -12.358763 1.706387 1.869221 -18.330299 -2.752551 -18.225880 -1.838025 0.135850 26.517555 2.339999 8.812174 -21.701540 -2.614600 0.000000 -4.513700 8.597852 -1.540969 0.790030 1.856465 5.223983 -30.188178 -1.332036 -3.327267 64.972101 -2.656942 -14.575382 -2.979664 -1.458200 0.000000 -47.620400 6.555767 -0.631732 -2.526781 1.556444 -1.061321 -4.406774 -0.905082 -0.958056 -4.859349 -1.531039 -6.864273 -5.799084 1.707083 0.091714 0.550527 0.000000 0.000000 0.000000 9.188410 -0.527697 1.517306 -9.254291 -38.457623 -54.180040 2.005345 -33.416330 -0.263245 23.786915 0.973058 0.073737 -0.562266 0.624609 0.000000 0.000000 0.000000 0.000000 0.000000 0.000000 0.000000 -18.433740 -3.368641 -3.007479 -122.692451 82.713592 -176.594234 -6.168120 10.518125 -0.025095 1.176980 11.927476 0.150031 -0.185060 -0.732914 0.000000 0.000000 0.000000 0.000000 0.000000 0.000000 0.000000 
5.781946 16.631657 -2.885273 -151.275791 73.243912 -132.158356 -12.464923 1.872601 1.861831 -17.807843 -2.394598 -16.566041 -1.741483 0.114135 24.877317 1.991312 7.954218 -18.655987 -1.880900 -0.000000 -8.462700 8.477884 -1.456763 0.891741 2.443542 5.348951 -30.940708 -1.117076 -3.233160 62.545646 -2.605689 -14.121194 -3.083792 -1.432799 0.000000 -47.742700 6.992020 -0.542656 -2.642304 1.573063 -1.006998 -4.548856 -1.126188 -0.884626 -5.341537 -1.001571 -6.808654 -5.272447 1.805744 0.087906 0.704401 0.000000 0.000000 0.000000 9.559651 -2.207277 2.291893 -9.379994 -38.631188 -51.276906 1.634244 -30.653322 -0.222329 20.759304 1.470429 0.164997 -0.524437 0.584600 0.000000 0.000000 0.000000 0.000000 0.000000 0.000000 0.000000 -18.918353 -2.366180 -4.910229 -133.963144 86.214142 168.537059 -6.144166 11.276405 -0.029815 0.869465 12.305958 0.118290 -0.179619 -0.695518 0.000000 0.000000 0.000000 0.000000 0.000000 0.000000 0.000000 
5.997640 16.733497 -3.021600 -152.598147 72.243609 -133.596453 -12.567570 2.086250 1.907309 -17.265734 -1.943347 -14.971925 -1.641563 0.124054 23.292024 1.630942 6.981955 -15.234138 -1.171100 -0.000000 -13.772800 8.364560 -1.405717 1.049153 3.042582 5.393327 -31.552614 -0.887965 -3.117641 59.803921 -2.562049 -13.710500 -3.096630 -1.440100 -0.000000 -47.741300 7.351440 -0.552035 -2.923940 1.632709 -1.049130 -4.574420 -1.202711 -0.923376 -5.271966 -0.472469 -6.710254 -4.939554 1.876841 0.086123 0.796352 0.000000 0.000000 0.000000 9.869067 -3.665123 2.898843 -9.391825 -38.833728 -48.110549 1.277327 -27.914194 -0.175545 17.164081 1.651591 0.170433 -0.459214 0.545213 0.000000 0.000000 0.000000 0.000000 0.000000 0.000000 0.000000 -19.002596 -1.472523 -5.758848 -143.335981 88.300676 156.272244 -5.482830 12.133782 -0.028109 0.608619 12.485403 0.086299 -0.152158 -0.654830 0.000000 0.000000 0.000000 0.000000 0.000000 0.000000 0.000000 
6.216363 16.835794 -3.159159 -153.959086 71.210483 -135.090305 -12.681138 2.331349 1.968798 -16.703254 -1.403612 -13.475609 -1.538597 0.162691 21.754915 1.278698 5.922698 -11.464231 -0.537900 0.000000 -20.283400 8.242236 -1.378255 1.232941 3.643036 5.403540 -32.052361 -0.646761 -2.980203 56.770480 -2.525912 -13.342275 -3.031166 -1.476900 0.000001 -47.695100 7.694072 -0.647085 -3.273895 1.720275 -1.177766 -4.551236 -1.222234 -1.057022 -4.956364 0.029725 -6.570039 -4.744830 1.911772 0.084547 0.845887 0.000000 0.000000 0.000000 10.118350 -4.866806 3.378573 -9.391036 -39.061223 -44.506390 0.889818 -25.321016 -0.127138 13.229863 1.575041 0.126813 -0.375184 0.506003 0.000000 0.000000 0.000000 0.000000 0.000000 0.000000 0.000000 -18.755063 -0.800411 -5.962904 -151.577355 89.431713 145.630013 -4.651371 12.983003 -0.023897 0.400957 12.462970 0.058482 -0.120969 -0.619457 0.000000 0.000000 0.000000 0.000000 0.000000 0.000000 0.000000 
6.438201 16.936694 -3.298248 -155.302396 70.157975 -136.559153 -12.807724 2.595215 2.031662 -16.117582 -0.784871 -12.093850 -1.433893 0.223958 20.280392 0.958028 4.803758 -7.457000 -0.038000 0.000001 -27.278000 8.106188 -1.372677 1.437900 4.240824 5.418098 -32.460402 -0.392988 -2.821353 53.472395 -2.494747 -13.003089 -2.907338 -1.537000 -0.000000 -47.713399 8.045398 -0.791752 -3.659925 1.819926 -1.358756 -4.516126 -1.238903 -1.247332 -4.546851 0.499712 -6.393123 -4.630451 1.910856 0.081990 0.871822 0.000000 0.000000 0.000000 10.331516 -5.866200 3.756128 -9.465723 -39.317051 -40.285313 0.455634 -23.018394 -0.081609 9.191660 1.347755 0.072710 -0.282497 0.465993 0.000000 0.000000 0.000000 0.000000 0.000000 0.000000 0.000000 -18.269881 -0.325449 -5.796150 20.653228 89.994661 -44.044085 -3.840810 13.849633 -0.019174 0.262515 12.249822 0.038829 -0.093756 -0.589745 0.000000 0.000000 0.000000 0.000000 0.000000 0.000000 0.000000 
6.663042 17.034201 -3.439396 -156.569146 69.098435 -137.934432 -12.947569 2.866891 2.090070 -15.508404 -0.099714 -10.840344 -1.328418 0.301233 18.901516 0.688987 3.655907 -3.346183 0.287300 0.000000 -34.041500 7.953282 -1.389289 1.666691 4.834707 5.466680 -32.796305 -0.124123 -2.640369 49.937876 -2.463339 -12.666304 -2.746594 -1.611801 0.000000 -47.925700 8.418706 -0.957417 -4.072986 1.923153 -1.564761 -4.485474 -1.275859 -1.464583 -4.108781 0.931064 -6.188408 -4.564656 1.876965 0.078022 0.884379 0.000000 0.000000 0.000000 10.529796 -6.698189 4.041664 -9.679976 -39.588216 -35.288615 -0.017548 -21.166669 -0.042481 5.255789 1.096003 0.031997 -0.191073 0.423896 0.000000 0.000000 0.000000 0.000000 0.000000 0.000000 0.000000 -17.620225 -0.012342 -5.403817 12.942923 89.754795 -53.174726 -3.126995 14.772063 -0.014812 0.205295 11.861495 0.029222 -0.073242 -0.564645 0.000000 0.000000 0.000000 0.000000 0.000000 0.000000 0.000000 
6.890629 17.126425 -3.582942 -157.720086 68.047659 -139.171867 -13.098963 3.136387 2.140651 -14.881110 0.634610 -9.726430 -1.223649 0.387582 17.669368 0.485343 2.516933 0.708187 0.420200 -0.000000 -39.829100 7.781493 -1.427708 1.922571 5.422980 5.566300 -33.079013 0.164350 -2.435121 46.192509 -2.423485 -12.292199 -2.566477 -1.691499 -0.000000 -48.455900 8.820565 -1.124532 -4.508619 2.025747 -1.776974 -4.466230 -1.340225 -1.688514 -3.672081 1.316957 -5.967827 -4.533761 1.814439 0.072714 0.888050 0.000000 0.000000 0.000000 10.726437 -7.370061 4.244189 -10.056328 -39.858723 -29.432206 -0.506313 -19.917805 -0.011648 1.568976 0.933539 0.008343 -0.108484 0.378623 0.000000 0.000000 0.000000 0.000000 0.000000 0.000000 0.000000 -16.863990 0.165295 -4.874007 5.068088 89.728137 -62.042476 -2.543011 15.778526 -0.011141 0.233359 11.323264 0.029639 -0.060124 -0.543469 0.000000 0.000000 0.000000 0.000000 0.000000 0.000000 0.000000 
7.120737 17.211722 -3.728674 -158.742680 67.024732 -140.256778 -13.257973 3.395754 2.180417 -14.246188 1.398856 -8.758061 -1.119274 0.477293 16.637186 0.353047 1.444270 4.575663 0.376500 -0.000001 -44.342400 7.591089 -1.486489 2.206857 6.004206 5.719345 -33.322282 0.478699 -2.202255 42.253816 -2.363888 -11.831617 -2.368304 -1.766700 -0.000000 -49.429500 9.250159 -1.280509 -4.961012 2.125494 -1.982886 -4.460042 -1.430582 -1.905780 -3.250503 1.652932 -5.744175 -4.534323 1.729361 0.066470 0.884057 0.000000 0.000000 0.000000 10.926395 -7.870386 4.378058 -10.559888 -40.123661 -22.777692 -0.976987 -19.382820 0.010566 -1.797875 0.943967 -0.008971 -0.038318 0.329573 0.000000 0.000000 0.000000 0.000000 0.000000 0.000000 0.000000 -16.051460 0.228727 -4.271118 -3.070319 89.843744 -70.838661 -2.100720 16.894488 -0.008185 0.343547 10.660898 0.038264 -0.054173 -0.525840 0.000000 0.000000 0.000000 0.000000 0.000000 0.000000 0.000000 
7.352922 17.288641 -3.876347 -159.639050 66.044247 -141.193898 -13.419187 3.638538 2.206224 -13.619351 2.171268 -7.930976 -1.013223 0.565968 15.852434 0.291413 0.518520 8.154902 0.204600 0.000000 -47.648000 7.384691 -1.563050 2.516607 6.576330 5.909188 -33.531292 0.827315 -1.937492 38.134626 -2.269467 -11.224686 -2.142746 -1.825800 0.000000 -50.846000 9.699720 -1.417775 -5.419212 2.219626 -2.174417 -4.465966 -1.546703 -2.107690 -2.855163 1.942896 -5.532973 -4.566027 1.626851 0.059672 0.872593 0.000000 0.000000 0.000000 11.126078 -8.185199 4.463723 -11.098196 -40.395935 -15.554022 -1.393965 -19.607564 0.024849 -4.843331 1.177692 -0.037759 0.019770 0.276779 -0.000000 0.000000 0.000000 0.000000 0.000000 0.000000 0.000000 -15.212785 0.194521 -3.654792 168.648557 89.931527 100.464254 -1.803901 18.110653 -0.005888 0.522829 9.938800 0.052283 -0.054816 -0.512251 0.000000 0.000000 0.000000 0.000000 0.000000 0.000000 0.000000 
